<mxfile host="app.diagrams.net" modified="2020-10-28T15:51:51.402Z" agent="5.0 (Macintosh)" etag="q8dbWSyzS1DEH3tXTu32" version="13.8.5" type="github">
  <diagram id="zvIFHeQq0QlVzXy62rQw" name="Page-1">
    <mxGraphModel dx="1426" dy="728" grid="1" gridSize="10" guides="1" tooltips="1" connect="1" arrows="1" fold="1" page="1" pageScale="1" pageWidth="827" pageHeight="1169" math="0" shadow="0">
      <root>
        <mxCell id="0" />
        <mxCell id="1" parent="0" />
        <mxCell id="eaYE8DUExyUXFNaU-PMS-1" value="" style="whiteSpace=wrap;html=1;aspect=fixed;" vertex="1" parent="1">
          <mxGeometry x="130" y="70" width="270" height="270" as="geometry" />
        </mxCell>
      </root>
    </mxGraphModel>
  </diagram>
</mxfile>
